PathFileType  4	(X/Y/Z) C:\Users\antoi\Documents\MyRepositories\mobilecap\ResultsAnalysis
DataRate	CameraRate	NumFrames	NumMarkers	Units	OrigDataRate	OrigDataStartFrame	OrigNumFrames
100.0	100.0	5	51	mm	100.0	17	130
Frame#	Time	r_knee			r_shank_antsup			r_ankle			r_calc			r_5meta			r_toe			L_knee			L_shank_antsup			L_ankle			L_calc			L_5meta			L_toe			r_sh2			r_sh3			r_sh4			L_sh2			L_sh3			r_thigh1			r_thigh2			r_thigh3			r_thigh4			r_thigh5			L_thigh1			L_thigh2			L_thigh3			L_thigh4			r.ASIS			r.PSIS			L.ASIS			L.PSIS			C7			R_Shoulder			L_Shoulder			R_Sternum			L_Sternum			R_humerus			R_elbow_med			R_elbow_lat			R_forearm			R_wrist_radius			R_wrist_ulna			L_humerus			L_elbow_med			L_elbow_lat			L_forearm			L_wrist_radius			L_wrist_ulna			R_HJC			L_HJC			R_HJC_reg			L_HJC_reg			
		X1	Y1	Z1	X2	Y2	Z2	X3	Y3	Z3	X4	Y4	Z4	X5	Y5	Z5	X6	Y6	Z6	X7	Y7	Z7	X8	Y8	Z8	X9	Y9	Z9	X10	Y10	Z10	X11	Y11	Z11	X12	Y12	Z12	X13	Y13	Z13	X14	Y14	Z14	X15	Y15	Z15	X16	Y16	Z16	X17	Y17	Z17	X18	Y18	Z18	X19	Y19	Z19	X20	Y20	Z20	X21	Y21	Z21	X22	Y22	Z22	X23	Y23	Z23	X24	Y24	Z24	X25	Y25	Z25	X26	Y26	Z26	X27	Y27	Z27	X28	Y28	Z28	X29	Y29	Z29	X30	Y30	Z30	X31	Y31	Z31	X32	Y32	Z32	X33	Y33	Z33	X34	Y34	Z34	X35	Y35	Z35	X36	Y36	Z36	X37	Y37	Z37	X38	Y38	Z38	X39	Y39	Z39	X40	Y40	Z40	X41	Y41	Z41	X42	Y42	Z42	X43	Y43	Z43	X44	Y44	Z44	X45	Y45	Z45	X46	Y46	Z46	X47	Y47	Z47	X48	Y48	Z48	X49	Y49	Z49	X50	Y50	Z50	X51	Y51	Z51	

17	0.16000000	26.94286	533.63424	-37.22272	81.79623	452.33023	-56.02022	98.08762	113.99285	-98.50357	25.98913	72.73666	-144.69706	228.38723	51.10591	-74.23871	276.39876	96.82035	-136.43159	-194.19448	519.45404	-343.51138	-249.20162	448.81644	-358.28797	-489.56054	237.00347	-265.36693	-567.14046	269.02223	-198.50961	-493.12851	91.94274	-286.17669	-424.06927	68.95456	-234.45526	98.65025	342.57233	-38.10281	23.44276	450.54468	-8.44622	20.04088	333.97166	-6.80500	-306.37364	514.82383	-333.06556	-384.55809	422.36295	-313.65553	12.44153	860.55851	-14.63185	45.75751	757.31741	-30.88287	8.64086	715.43951	7.60922	-89.31538	820.84839	9.80384	-49.25606	714.43979	1.14744	-89.96124	799.98209	-364.59895	-88.98168	659.91230	-356.65704	-199.79474	798.88603	-361.19458	-202.43511	662.39486	-355.39603	-29.33456	1067.43383	-49.52539	-217.51817	1054.26930	-93.05286	-59.39706	1053.33107	-301.67374	-233.03633	1056.73953	-201.33421	-165.95942	1615.51868	-159.75945	-107.20838	1537.16001	7.17124	-147.12572	1540.76771	-328.85155	-60.08971	1504.63181	-135.70318	-67.81485	1503.20278	-193.02383	-139.75997	1375.90741	67.62379	-261.44734	1205.54497	-6.18006	-260.78613	1215.58078	77.40065	-262.33412	1044.03983	104.53778	-250.36413	945.54209	99.22577	-292.75034	963.86430	114.84089	-151.11038	1424.09396	-416.87663	-137.93785	1173.25820	-394.61778	-125.09978	1204.97539	-472.51621	-50.22133	1188.81966	-489.00780	111.83693	1116.17793	-488.91753	92.31762	1084.16167	-505.90819	-95.72470	941.31392	-56.31175	-128.87739	938.10893	-260.55687	-77.84339	967.04843	-80.74269	-101.64816	970.83492	-246.86196	
18	0.17000000	37.13938	534.94224	-35.20866	90.77297	452.44972	-54.84607	99.90175	113.79483	-97.91948	26.51760	73.13513	-144.58696	228.96999	49.32616	-73.85017	277.92016	93.76447	-136.32875	-165.68679	518.82285	-346.62307	-221.19680	449.86619	-361.17161	-467.65128	246.26196	-268.06884	-541.40335	284.64702	-201.10583	-480.81187	101.13683	-287.45238	-412.52958	73.69800	-236.72790	106.05071	342.57084	-36.92643	33.17817	451.82044	-6.32228	27.77468	335.29486	-4.16889	-276.37371	517.34605	-336.35560	-357.04446	427.24370	-316.47475	26.25946	862.46398	-11.65537	58.81199	758.93728	-27.68368	20.85099	717.13682	9.88176	-76.07133	823.63358	11.85529	-37.00381	716.80349	3.24317	-69.92907	801.26607	-364.75227	-65.24329	661.15345	-358.29080	-179.73884	797.08115	-361.49939	-178.75290	660.71523	-357.43315	-14.73078	1070.07143	-48.43043	-203.16378	1056.34532	-92.98719	-44.67956	1053.98436	-300.59685	-218.66519	1057.63905	-201.47583	-150.00423	1617.37357	-159.44388	-90.31962	1539.03831	7.04680	-132.30868	1542.43226	-328.57930	-44.30152	1506.11787	-135.93619	-52.40241	1504.60904	-193.12712	-121.15252	1377.66056	67.82341	-242.79600	1206.51508	-4.10167	-240.95915	1216.52512	79.55031	-239.85682	1044.81704	106.47281	-226.81179	946.43932	101.04301	-269.22347	964.32218	117.13581	-138.03410	1425.25219	-416.09730	-128.83084	1174.36783	-392.26876	-115.87697	1205.41823	-470.49579	-41.29480	1188.27854	-487.41713	120.10441	1114.20431	-487.89935	100.40456	1082.30494	-504.27833	-81.33261	943.79854	-54.73470	-113.80969	938.90259	-259.05472	-63.19466	969.67340	-78.62765	-86.94372	971.65403	-244.86246	
19	0.18000000	46.71411	536.19351	-33.59420	99.17797	452.58015	-54.04039	101.38921	113.79577	-97.63650	26.80164	73.45580	-144.53086	229.36287	48.28275	-73.71306	279.01611	91.38794	-136.68478	-136.65891	518.73023	-349.43236	-192.35718	450.99071	-363.74103	-444.58014	255.15286	-270.56126	-515.16083	298.16540	-203.47636	-465.08419	110.49845	-289.28060	-397.67868	79.40385	-239.28180	112.66066	342.51014	-36.30103	42.12948	453.01235	-4.85296	34.67728	336.59417	-2.42356	-245.90377	519.78300	-339.84695	-328.72689	431.88082	-319.52325	39.56513	864.18781	-8.43177	71.34928	760.38177	-23.91466	32.18080	718.68037	12.31272	-63.48341	826.31283	13.52164	-25.50505	719.04580	5.01416	-50.06156	802.85556	-364.75114	-41.52323	662.84645	-359.51945	-159.71392	795.52468	-361.67670	-154.97524	659.41086	-359.08563	-0.42528	1072.74817	-47.48531	-189.12578	1058.45156	-92.88089	-30.48001	1054.73364	-299.65417	-204.75788	1058.51526	-201.53792	-134.13882	1619.26783	-159.22811	-73.52895	1540.86510	6.77287	-117.59623	1544.13469	-328.46190	-28.65141	1507.59366	-136.34365	-37.15238	1506.00859	-193.40124	-102.50525	1379.37107	67.86706	-224.00609	1207.26539	-1.83040	-220.83165	1217.32157	81.84418	-216.81942	1045.49361	108.58630	-202.55617	947.29204	103.04271	-245.05793	964.69282	119.65119	-125.18223	1426.41220	-415.38833	-119.94588	1175.57742	-389.69575	-107.01264	1205.85281	-468.30330	-32.78395	1187.54855	-485.69696	127.75692	1111.61615	-486.79489	107.70710	1079.86016	-502.55189	-67.20049	946.31933	-53.26238	-99.20893	939.75442	-257.61344	-48.83599	972.42160	-76.57058	-72.75862	972.51949	-242.88014	
20	0.19000000	55.62614	537.31508	-32.43403	106.91343	452.65998	-53.49638	102.60308	113.93306	-97.64008	26.89623	73.75305	-144.50962	229.62682	47.74283	-73.76231	279.77455	89.51492	-137.35798	-107.27228	519.32793	-351.86909	-162.92075	452.32110	-365.91037	-420.43041	263.49638	-272.77535	-488.95233	309.14787	-205.54333	-445.51186	119.52719	-291.65069	-378.97572	85.83508	-242.01813	118.33922	342.31937	-36.12768	50.05852	454.04513	-4.07338	40.52606	337.80107	-1.67876	-215.19877	522.27683	-343.36600	-299.85446	436.36452	-322.68539	52.32933	865.62901	-5.17322	83.25777	761.51413	-19.89634	42.65976	720.00540	14.80333	-51.50501	828.81807	14.83510	-14.76406	721.10268	6.46461	-30.35680	804.85564	-364.56803	-17.83022	665.10646	-360.34549	-139.70956	794.35901	-361.71788	-131.10475	658.59910	-360.28516	13.62466	1075.37389	-46.72121	-175.33233	1060.58743	-92.65561	-16.73786	1055.66182	-298.84823	-191.22592	1059.41534	-201.42692	-118.37669	1621.18390	-159.11839	-56.86863	1542.64210	6.34952	-103.03329	1545.87650	-328.50211	-13.14498	1509.06863	-136.93543	-22.06678	1507.40745	-193.85896	-83.88205	1381.04614	67.73044	-205.08028	1207.79822	0.60034	-200.39554	1217.96673	84.23172	-193.25426	1046.09730	110.83225	-177.63673	948.14179	105.15739	-220.27518	965.00120	122.33880	-112.59439	1427.57640	-414.76114	-111.19922	1176.90604	-386.90773	-98.47815	1206.29862	-465.94991	-24.67259	1186.65848	-483.83818	134.78852	1108.44019	-485.58991	114.15913	1076.82590	-500.74252	-53.25973	948.81248	-51.93818	-85.05617	940.73090	-256.27463	-34.76104	975.27880	-74.64058	-59.06012	973.48825	-240.95920	
21	0.20000000	63.84640	538.27659	-31.69770	113.91190	452.65970	-53.05353	103.59747	114.14998	-97.87408	26.86347	74.05432	-144.50638	229.80779	47.48663	-73.91599	280.29026	87.97012	-138.18596	-77.73381	520.72137	-353.89818	-133.13298	454.00722	-367.63265	-395.20338	271.05833	-274.70433	-463.00326	317.41791	-207.33826	-421.96715	127.73845	-294.47376	-356.15782	92.61679	-244.83826	123.04050	341.99390	-36.19418	56.83392	454.90826	-3.89944	45.21022	338.89928	-1.85122	-184.48902	524.96375	-346.72083	-270.65916	440.75933	-325.82466	64.55540	866.74531	-2.09599	94.48316	762.27156	-16.00757	52.39360	721.09027	17.17997	-40.04776	831.11499	15.86965	-4.71458	722.94404	7.60045	-10.80518	807.36608	-364.19203	5.83416	668.03391	-360.80963	-119.71932	793.69916	-361.64629	-107.15387	658.37349	-361.04450	27.45440	1077.86715	-46.13135	-161.72250	1062.73737	-92.25196	-3.36821	1056.84817	-298.15997	-177.96362	1060.39440	-201.07161	-102.72871	1623.10535	-159.11366	-40.35792	1544.37996	5.78361	-88.66162	1547.65811	-328.69134	2.21981	1510.55306	-137.71088	-7.13564	1508.81313	-194.49929	-65.33259	1382.70147	67.40443	-186.01728	1208.13331	3.14913	-179.64498	1218.46777	86.65983	-169.19750	1046.66792	113.15905	-152.09758	949.03212	107.32487	-194.88332	965.28258	125.14413	-100.29747	1428.74737	-414.21773	-102.57887	1178.36459	-383.93530	-90.25185	1206.77571	-463.45034	-16.94624	1185.63794	-481.83521	141.18875	1104.70766	-484.27186	119.74047	1073.22888	-498.85026	-39.45343	951.21454	-50.79155	-71.30201	941.89697	-255.07439	-20.96126	978.19868	-72.90267	-45.77204	974.62056	-239.15619	
